<svg width="57.968750" height="48.149170" viewBox="0 0 57.9688 48.1492" fill="none" xmlns="http://www.w3.org/2000/svg" xmlns:xlink="http://www.w3.org/1999/xlink">
	<desc>
			Created with Pixso.
	</desc>
	<defs/>
	<path id="Union" d="M57.96 23.18L53.96 23.18L53.96 15.18L45.96 15.18L45.96 23.18L41.96 23.18L49.96 31.18L57.96 23.18ZM42.96 33.18L56.96 33.18L56.96 35.18L42.96 35.18L42.96 33.18Z" fill="#4D9717" fill-opacity="1.000000" fill-rule="evenodd"/>
	<path id="path" d="M2.4 48.14L34.52 48.14C35.85 48.14 36.93 47.07 36.93 45.74L36.93 11.23C36.96 9.99 36.47 8.8 35.57 7.93L28.99 1.35C28.13 0.46 26.93 -0.03 25.69 0L2.4 0C1.07 0 0 1.07 0 2.4L0 45.74C0 47.07 1.07 48.14 2.4 48.14ZM34.53 46.54L2.4 46.54C1.96 46.54 1.6 46.18 1.6 45.74L1.6 35.3L35.33 35.3L35.33 45.74C35.33 45.95 35.24 46.15 35.09 46.3C34.94 46.46 34.74 46.54 34.53 46.54ZM34.19 8.82L29.71 8.82C28.82 8.82 28.1 8.1 28.1 7.22L28.1 2.74L34.19 8.82ZM2.4 1.6L25.69 1.6C25.9 1.6 26.11 1.68 26.26 1.84C26.41 1.99 26.49 2.19 26.49 2.4L26.49 7.22C26.49 8.07 26.83 8.89 27.44 9.49C28.04 10.09 28.86 10.43 29.71 10.43L34.52 10.43C34.74 10.43 34.94 10.51 35.09 10.66C35.24 10.81 35.33 11.02 35.33 11.23L35.33 33.7L1.6 33.7L1.6 2.4C1.6 1.96 1.96 1.6 2.4 1.6Z" fill="#4D9717" fill-opacity="1.000000" fill-rule="nonzero"/>
	<path id="path" d="M24.09 15.24L26.49 15.24C26.94 15.24 27.3 14.88 27.3 14.44C27.3 14 26.94 13.64 26.49 13.64L24.09 13.64C23.64 13.64 23.28 14 23.28 14.44C23.28 14.88 23.64 15.24 24.09 15.24Z" fill="#4D9717" fill-opacity="1.000000" fill-rule="nonzero"/>
	<path id="path" d="M9.63 15.24L20.87 15.24C21.32 15.24 21.68 14.88 21.68 14.44C21.68 14 21.32 13.64 20.87 13.64L9.63 13.64C9.19 13.64 8.83 14 8.83 14.44C8.83 14.88 9.19 15.24 9.63 15.24Z" fill="#4D9717" fill-opacity="1.000000" fill-rule="nonzero"/>
	<path id="path" d="M5.62 15.24L6.42 15.24C6.86 15.24 7.22 14.88 7.22 14.44C7.22 14 6.86 13.64 6.42 13.64L5.62 13.64C5.17 13.64 4.81 14 4.81 14.44C4.81 14.88 5.17 15.24 5.62 15.24Z" fill="#4D9717" fill-opacity="1.000000" fill-rule="nonzero"/>
	<path id="path" d="M24.89 19.26C24.89 19.47 24.97 19.67 25.12 19.82C25.27 19.97 25.48 20.06 25.69 20.06L28.1 20.06C28.54 20.06 28.9 19.7 28.9 19.26C28.9 18.81 28.54 18.45 28.1 18.45L25.69 18.45C25.25 18.45 24.89 18.81 24.89 19.26Z" fill="#4D9717" fill-opacity="1.000000" fill-rule="nonzero"/>
	<path id="path" d="M10.43 19.26C10.43 19.47 10.52 19.67 10.67 19.82C10.82 19.97 11.02 20.06 11.24 20.06L22.48 20.06C22.92 20.06 23.28 19.7 23.28 19.26C23.28 18.81 22.92 18.45 22.48 18.45L11.24 18.45C10.79 18.45 10.43 18.81 10.43 19.26Z" fill="#4D9717" fill-opacity="1.000000" fill-rule="nonzero"/>
	<path id="path" d="M6.42 19.26C6.42 19.47 6.5 19.67 6.65 19.82C6.8 19.97 7.01 20.06 7.22 20.06L8.03 20.06C8.47 20.06 8.83 19.7 8.83 19.26C8.83 18.81 8.47 18.45 8.02 18.45L7.22 18.45C6.78 18.45 6.42 18.81 6.42 19.26Z" fill="#4D9717" fill-opacity="1.000000" fill-rule="nonzero"/>
	<path id="path" d="M26.5 24.07C26.5 24.28 26.58 24.49 26.73 24.64C26.88 24.79 27.08 24.87 27.3 24.87L29.71 24.87C30.15 24.87 30.51 24.51 30.51 24.07C30.51 23.63 30.15 23.27 29.71 23.27L27.3 23.27C26.85 23.27 26.5 23.63 26.5 24.07Z" fill="#4D9717" fill-opacity="1.000000" fill-rule="nonzero"/>
	<path id="path" d="M24.89 24.07C24.89 23.86 24.8 23.65 24.65 23.5C24.5 23.35 24.3 23.27 24.09 23.27L12.84 23.27C12.4 23.27 12.04 23.63 12.04 24.07C12.04 24.51 12.4 24.87 12.84 24.87L24.09 24.87C24.3 24.87 24.5 24.79 24.65 24.64C24.8 24.49 24.89 24.28 24.89 24.07Z" fill="#4D9717" fill-opacity="1.000000" fill-rule="nonzero"/>
	<path id="path" d="M10.43 24.07C10.43 23.86 10.35 23.65 10.2 23.5C10.05 23.35 9.84 23.27 9.63 23.27L8.83 23.27C8.38 23.27 8.02 23.63 8.02 24.07C8.02 24.51 8.38 24.87 8.83 24.87L9.63 24.87C9.84 24.87 10.05 24.79 10.2 24.64C10.35 24.49 10.43 24.28 10.43 24.07Z" fill="#4D9717" fill-opacity="1.000000" fill-rule="nonzero"/>
	<path id="path" d="M28.1 28.89C28.1 29.1 28.19 29.3 28.34 29.45C28.49 29.6 28.69 29.69 28.9 29.69L31.31 29.69C31.76 29.69 32.12 29.33 32.12 28.89C32.12 28.44 31.76 28.08 31.31 28.08L28.9 28.08C28.46 28.08 28.1 28.44 28.1 28.89Z" fill="#4D9717" fill-opacity="1.000000" fill-rule="nonzero"/>
	<path id="path" d="M25.69 28.08L14.45 28.08C14.01 28.08 13.65 28.44 13.65 28.89C13.65 29.33 14.01 29.69 14.45 29.69L25.69 29.69C26.14 29.69 26.5 29.33 26.5 28.89C26.5 28.44 26.14 28.08 25.69 28.08Z" fill="#4D9717" fill-opacity="1.000000" fill-rule="nonzero"/>
	<path id="path" d="M11.24 28.08L10.43 28.08C9.99 28.08 9.63 28.44 9.63 28.89C9.63 29.33 9.99 29.69 10.43 29.69L11.24 29.69C11.68 29.69 12.04 29.33 12.04 28.89C12.04 28.44 11.68 28.08 11.24 28.08Z" fill="#4D9717" fill-opacity="1.000000" fill-rule="nonzero"/>
	<path id="path" d="M28.9 43.33L25.69 43.33L25.69 37.71C25.69 37.27 25.33 36.91 24.89 36.91C24.45 36.91 24.09 37.27 24.09 37.71L24.09 44.13C24.09 44.34 24.17 44.55 24.32 44.7C24.47 44.85 24.67 44.93 24.89 44.93L28.9 44.93C29.35 44.93 29.71 44.57 29.71 44.13C29.71 43.69 29.35 43.33 28.9 43.33Z" fill="#4D9717" fill-opacity="1.000000" fill-rule="nonzero"/>
	<path id="path" d="M14.13 37.07C13.77 36.81 13.27 36.88 13 37.23L11.24 39.58L9.47 37.23C9.2 36.88 8.7 36.81 8.35 37.07C7.99 37.34 7.92 37.84 8.19 38.19L10.23 40.92L8.19 43.65C7.92 44 7.99 44.51 8.35 44.77C8.7 45.04 9.2 44.97 9.47 44.61L11.24 42.26L13 44.61C13.27 44.97 13.77 45.04 14.13 44.77C14.48 44.51 14.55 44 14.29 43.65L12.24 40.92L14.29 38.19C14.55 37.84 14.48 37.34 14.13 37.07Z" fill="#4D9717" fill-opacity="1.000000" fill-rule="nonzero"/>
	<path id="path" d="M21.93 36.95C21.6 36.84 21.24 36.96 21.03 37.23L19.27 39.58L17.5 37.23C17.29 36.95 16.93 36.84 16.6 36.95C16.28 37.06 16.05 37.37 16.05 37.71L16.05 44.13C16.05 44.57 16.41 44.93 16.86 44.93C17.3 44.93 17.66 44.57 17.66 44.13L17.66 40.12L18.62 41.4C18.78 41.6 19.02 41.71 19.27 41.71C19.52 41.71 19.75 41.6 19.91 41.4L20.87 40.12L20.87 44.13C20.87 44.57 21.23 44.93 21.68 44.93C22.12 44.93 22.48 44.57 22.48 44.13L22.48 37.71C22.48 37.37 22.26 37.06 21.93 36.95Z" fill="#4D9717" fill-opacity="1.000000" fill-rule="nonzero"/>
</svg>
