<svg width="21.500000" height="18.664124" viewBox="0 0 21.5 18.6641" fill="none" xmlns="http://www.w3.org/2000/svg" xmlns:xlink="http://www.w3.org/1999/xlink">
	<defs/>
	<path id="path" d="M6.25 0.75C3.21 0.75 0.75 3.21 0.75 6.25C0.75 11.75 7.25 16.75 10.75 17.91C14.25 16.75 20.75 11.75 20.75 6.25C20.75 3.21 18.28 0.75 15.25 0.75C13.38 0.75 11.74 1.67 10.75 3.08C9.75 1.67 8.11 0.75 6.25 0.75Z" fill="currentColor" fill-opacity="1.000000" fill-rule="nonzero"/>
	<path id="path" d="M0.75 6.25C0.75 11.75 7.25 16.75 10.75 17.91C14.25 16.75 20.75 11.75 20.75 6.25C20.75 3.21 18.28 0.75 15.25 0.75C13.38 0.75 11.74 1.67 10.75 3.08C9.75 1.67 8.11 0.75 6.25 0.75C3.21 0.75 0.75 3.21 0.75 6.25Z" stroke="currentColor" stroke-opacity="1.000000" stroke-width="1.500000" stroke-linejoin="round"/>
</svg>
