<svg width="40.000000" height="40.000000" viewBox="0 0 40 40" fill="none" xmlns="http://www.w3.org/2000/svg" xmlns:xlink="http://www.w3.org/1999/xlink">
	<defs>
		<clipPath id="clip528_35">
			<rect id="Стоу меню" width="40.000000" height="40.000000" fill="white" fill-opacity="0"/>
		</clipPath>
	</defs>
	<g clip-path="url(#clip528_35)">
		<path id="path" d="M8.01 11.48L8 11.5C7.16 11.5 6.5 10.84 6.5 10C6.5 9.15 7.16 8.5 8 8.5L8.01 8.52L8.01 11.48ZM34.64 8.52L34.66 8.5C35.5 8.5 36.16 9.15 36.16 10C36.16 10.84 35.5 11.5 34.66 11.5L34.64 11.48L34.64 8.52Z" fill="#000000" fill-opacity="0" fill-rule="nonzero"/>
		<path id="path" d="M8 10L34.66 10" stroke="currentColor" stroke-opacity="1.000000" stroke-width="3.000000" stroke-linejoin="round" stroke-linecap="round"/>
		<path id="path" d="M8.49 21.67L8.47 21.69C7.63 21.69 6.97 21.03 6.97 20.19C6.97 19.35 7.63 18.69 8.47 18.69L8.49 18.71L8.49 21.67ZM35.12 18.71L35.14 18.69C35.98 18.69 36.64 19.35 36.64 20.19C36.64 21.03 35.98 21.69 35.14 21.69L35.12 21.67L35.12 18.71Z" fill="#000000" fill-opacity="0" fill-rule="nonzero"/>
		<path id="path" d="M8.47 20.19L35.14 20.19" stroke="currentColor" stroke-opacity="1.000000" stroke-width="3.000000" stroke-linejoin="round" stroke-linecap="round"/>
		<path id="path" d="M8.49 31.67L8.47 31.69C7.63 31.69 6.97 31.03 6.97 30.19C6.97 29.35 7.63 28.69 8.47 28.69L8.49 28.71L8.49 31.67ZM35.12 28.71L35.14 28.69C35.98 28.69 36.64 29.35 36.64 30.19C36.64 31.03 35.98 31.69 35.14 31.69L35.12 31.67L35.12 28.71Z" fill="#000000" fill-opacity="0" fill-rule="nonzero"/>
		<path id="path" d="M8.47 30.19L35.14 30.19" stroke="currentColor" stroke-opacity="1.000000" stroke-width="3.000000" stroke-linejoin="round" stroke-linecap="round"/>
	</g>
</svg>
