<svg width="128.000000" height="128.000000" viewBox="0 0 128 128" fill="none" xmlns="http://www.w3.org/2000/svg" xmlns:xlink="http://www.w3.org/1999/xlink">
	<desc>
			Created with Pixso.
	</desc>
	<defs/>
	<circle id="Эллипс 49" cx="64.000000" cy="64.000000" r="64.000000" fill="#FFFFFF" fill-opacity="1.000000"/>
	<path id="Bright Web" d="M84.12 84.6Q89.84 87.77 97.89 87.77Q101.64 87.77 105.14 86.86Q106.26 86.57 107.34 86.18Q111.88 84.6 114.77 81.98L111.38 73.29Q108.2 75.77 104.98 76.94Q104.35 77.17 103.7 77.35Q101.08 78.1 98.24 78.1Q92.2 78.1 88.66 75.12Q88.02 74.58 87.46 73.94Q83.84 69.77 83.84 62.06Q83.84 54.37 87.46 50.23Q88.01 49.62 88.63 49.09Q92.17 46.1 98.24 46.1Q101 46.1 103.56 46.81Q104.28 47.01 104.98 47.27Q108.2 48.44 111.38 50.91L114.77 42.22Q111.88 39.53 107.34 37.97Q106.4 37.65 105.44 37.39Q101.8 36.42 97.89 36.42Q89.84 36.42 84.12 39.61Q81.2 41.23 78.98 43.51Q76.83 45.72 75.32 48.54Q72.25 54.3 72.25 62.06Q72.25 69.91 75.32 75.67Q76.79 78.42 78.88 80.59Q81.14 82.94 84.12 84.6Z" fill="#202224" fill-opacity="1.000000" fill-rule="evenodd"/>
	<path id="Bright Web" d="M15.15 37.2L15.15 87L25.03 87L25.03 56.84L37.82 79.51L43.96 79.51L56.83 56.63L56.83 87L66.77 87L66.77 37.2L57.81 37.2L41.07 67.79L24.25 37.2L15.15 37.2Z" fill="#4880FF" fill-opacity="1.000000" fill-rule="evenodd"/>
</svg>
